<mxfile host="app.diagrams.net" modified="2023-08-06T17:00:35.151Z" agent="Mozilla/5.0 (Windows NT 10.0; Win64; x64) AppleWebKit/537.36 (KHTML, like Gecko) Chrome/115.0.0.0 Safari/537.36 Edg/115.0.1901.188" etag="1aH0Zmnodzvm-x_5Q7oT" version="21.6.2" type="github">
  <diagram name="Page-1" id="YncP4NfupysjDNeq8Gf2">
    <mxGraphModel dx="875" dy="478" grid="1" gridSize="10" guides="1" tooltips="1" connect="1" arrows="1" fold="1" page="1" pageScale="1" pageWidth="850" pageHeight="1100" math="0" shadow="0">
      <root>
        <mxCell id="0" />
        <mxCell id="1" parent="0" />
        <mxCell id="eumnM8MBlZ1zNK_1q4PI-3" value="Slave 1&lt;br&gt;15&quot;" style="shape=ext;double=1;rounded=0;whiteSpace=wrap;html=1;" vertex="1" parent="1">
          <mxGeometry x="80" y="80" width="120" height="80" as="geometry" />
        </mxCell>
        <mxCell id="eumnM8MBlZ1zNK_1q4PI-4" value="Master&lt;br&gt;21&quot;" style="shape=ext;double=1;rounded=0;whiteSpace=wrap;html=1;" vertex="1" parent="1">
          <mxGeometry x="300" y="80" width="120" height="80" as="geometry" />
        </mxCell>
        <mxCell id="eumnM8MBlZ1zNK_1q4PI-5" value="Slave 2&lt;br&gt;15&quot;" style="shape=ext;double=1;rounded=0;whiteSpace=wrap;html=1;" vertex="1" parent="1">
          <mxGeometry x="530" y="80" width="120" height="80" as="geometry" />
        </mxCell>
        <mxCell id="eumnM8MBlZ1zNK_1q4PI-7" value="" style="edgeStyle=elbowEdgeStyle;elbow=vertical;endArrow=diamond;html=1;curved=0;rounded=0;endSize=8;startSize=8;entryX=0.25;entryY=1;entryDx=0;entryDy=0;exitX=0.25;exitY=1;exitDx=0;exitDy=0;endFill=1;startArrow=diamond;startFill=1;fillColor=#d5e8d4;strokeColor=#82b366;strokeWidth=2;" edge="1" parent="1" source="eumnM8MBlZ1zNK_1q4PI-4" target="eumnM8MBlZ1zNK_1q4PI-3">
          <mxGeometry width="50" height="50" relative="1" as="geometry">
            <mxPoint x="330" y="310" as="sourcePoint" />
            <mxPoint x="90.0000000000001" y="270" as="targetPoint" />
            <Array as="points">
              <mxPoint x="210" y="240" />
            </Array>
          </mxGeometry>
        </mxCell>
        <mxCell id="eumnM8MBlZ1zNK_1q4PI-8" value="" style="edgeStyle=elbowEdgeStyle;elbow=vertical;endArrow=diamond;html=1;curved=0;rounded=0;endSize=8;startSize=8;exitX=0.372;exitY=0.991;exitDx=0;exitDy=0;entryX=0.25;entryY=1;entryDx=0;entryDy=0;fillColor=#f8cecc;strokeColor=#b85450;strokeWidth=2;endFill=1;startArrow=diamond;startFill=1;exitPerimeter=0;" edge="1" parent="1" source="eumnM8MBlZ1zNK_1q4PI-3" target="eumnM8MBlZ1zNK_1q4PI-5">
          <mxGeometry width="50" height="50" relative="1" as="geometry">
            <mxPoint x="400" y="320" as="sourcePoint" />
            <mxPoint x="550" y="270" as="targetPoint" />
            <Array as="points">
              <mxPoint x="360" y="210" />
            </Array>
          </mxGeometry>
        </mxCell>
        <mxCell id="eumnM8MBlZ1zNK_1q4PI-9" value="&lt;font style=&quot;font-size: 12px;&quot;&gt;Redund 2&lt;/font&gt;" style="text;strokeColor=none;fillColor=none;html=1;fontSize=24;fontStyle=1;verticalAlign=middle;align=center;" vertex="1" parent="1">
          <mxGeometry x="390" y="210" width="100" height="30" as="geometry" />
        </mxCell>
        <mxCell id="eumnM8MBlZ1zNK_1q4PI-10" value="&lt;font style=&quot;font-size: 12px;&quot;&gt;Redund 1&lt;/font&gt;" style="text;strokeColor=none;fillColor=none;html=1;fontSize=24;fontStyle=1;verticalAlign=middle;align=center;" vertex="1" parent="1">
          <mxGeometry x="160" y="240" width="100" height="30" as="geometry" />
        </mxCell>
        <mxCell id="eumnM8MBlZ1zNK_1q4PI-11" value="" style="rhombus;whiteSpace=wrap;html=1;" vertex="1" parent="1">
          <mxGeometry x="710" y="70" width="20" height="20" as="geometry" />
        </mxCell>
        <mxCell id="eumnM8MBlZ1zNK_1q4PI-12" value="Lan (Hub)" style="text;html=1;strokeColor=none;fillColor=none;align=center;verticalAlign=middle;whiteSpace=wrap;rounded=0;" vertex="1" parent="1">
          <mxGeometry x="740" y="65" width="60" height="30" as="geometry" />
        </mxCell>
        <mxCell id="eumnM8MBlZ1zNK_1q4PI-13" value="" style="shape=ext;double=1;rounded=0;whiteSpace=wrap;html=1;" vertex="1" parent="1">
          <mxGeometry x="705" y="40" width="30" height="15" as="geometry" />
        </mxCell>
        <mxCell id="eumnM8MBlZ1zNK_1q4PI-14" value="Panel PC" style="text;html=1;strokeColor=none;fillColor=none;align=center;verticalAlign=middle;whiteSpace=wrap;rounded=0;" vertex="1" parent="1">
          <mxGeometry x="740" y="32.5" width="60" height="30" as="geometry" />
        </mxCell>
      </root>
    </mxGraphModel>
  </diagram>
</mxfile>
